<?xml version="1.0" encoding="UTF-8"?>
<!DOCTYPE svg PUBLIC "-//W3C//DTD SVG 1.1//EN" "http://www.w3.org/Graphics/SVG/1.1/DTD/svg11.dtd">
<svg xmlns="http://www.w3.org/2000/svg" version="1.1" width="96px" height="96px" style="shape-rendering:geometricPrecision; text-rendering:geometricPrecision; image-rendering:optimizeQuality; fill-rule:evenodd; clip-rule:evenodd" xmlns:xlink="http://www.w3.org/1999/xlink">
<g><path style="opacity:0.841" fill="#fefffe" d="M 46.5,7.5 C 51.7405,11.233 56.5738,15.5663 61,20.5C 61.2692,23.2798 60.1025,25.4464 57.5,27C 56.5,27.6667 55.5,27.6667 54.5,27C 52.3171,24.6496 49.9837,22.483 47.5,20.5C 44.801,23.0358 41.9676,25.3691 39,27.5C 36.5515,26.0557 34.3848,24.2224 32.5,22C 37.3699,17.2979 42.0366,12.4646 46.5,7.5 Z"/></g>
<g><path style="opacity:0.849" fill="#fefffe" d="M 21.5,32.5 C 24.0145,34.1816 26.0145,36.3483 27.5,39C 25.3691,41.9676 23.0358,44.801 20.5,47.5C 23.0358,50.199 25.3691,53.0324 27.5,56C 26.0557,58.4485 24.2224,60.6152 22,62.5C 16.9849,57.6519 12.1515,52.6519 7.5,47.5C 12.1884,42.4797 16.8551,37.4797 21.5,32.5 Z"/></g>
<g><path style="opacity:0.849" fill="#fefffe" d="M 72.5,32.5 C 77.8123,37.1456 82.8123,42.1456 87.5,47.5C 82.8485,52.6519 78.0151,57.6519 73,62.5C 70.7776,60.6152 68.9443,58.4485 67.5,56C 69.6309,53.0324 71.9642,50.199 74.5,47.5C 71.9642,44.801 69.6309,41.9676 67.5,39C 68.9852,36.683 70.6519,34.5164 72.5,32.5 Z"/></g>
<g><path style="opacity:0.856" fill="#fefffe" d="M 38.5,67.5 C 41.7915,69.4581 44.7915,71.7915 47.5,74.5C 50.1631,72.0077 52.9964,69.6744 56,67.5C 58.5127,68.6794 60.346,70.5127 61.5,73C 57.364,78.3034 52.6973,83.1368 47.5,87.5C 42.3481,82.8485 37.3481,78.0151 32.5,73C 34.3962,70.932 36.3962,69.0987 38.5,67.5 Z"/></g>
</svg>
